<mxfile host="app.diagrams.net" modified="2021-01-14T06:11:22.097Z" agent="5.0 (X11)" etag="g-AHEQb8ysnhmahQmxkj" version="14.2.2" type="github">
  <diagram id="QAOFlbMei2ECqcbo2d1S" name="Page-1">
    <mxGraphModel dx="813" dy="409" grid="1" gridSize="10" guides="1" tooltips="1" connect="1" arrows="1" fold="1" page="1" pageScale="1" pageWidth="827" pageHeight="1169" math="0" shadow="0">
      <root>
        <mxCell id="0" />
        <mxCell id="1" parent="0" />
        <mxCell id="qsQx1nmSbTBrZnD8Bkkt-8" value="" style="edgeStyle=orthogonalEdgeStyle;rounded=0;orthogonalLoop=1;jettySize=auto;html=1;" edge="1" parent="1" source="qsQx1nmSbTBrZnD8Bkkt-5" target="qsQx1nmSbTBrZnD8Bkkt-7">
          <mxGeometry relative="1" as="geometry" />
        </mxCell>
        <mxCell id="qsQx1nmSbTBrZnD8Bkkt-5" value="start" style="ellipse;whiteSpace=wrap;html=1;fillColor=#f8cecc;strokeColor=#b85450;" vertex="1" parent="1">
          <mxGeometry x="330" y="70" width="100" height="40" as="geometry" />
        </mxCell>
        <mxCell id="qsQx1nmSbTBrZnD8Bkkt-7" value="" style="rounded=0;whiteSpace=wrap;html=1;" vertex="1" parent="1">
          <mxGeometry x="330" y="140" width="100" height="30" as="geometry" />
        </mxCell>
      </root>
    </mxGraphModel>
  </diagram>
</mxfile>
